<svg width="20" height="20" viewBox="0 0 20 20" fill="none" xmlns="http://www.w3.org/2000/svg">
<g clip-path="url(#clip0)">
<path d="M19.9861 4.94664C19.9853 4.38222 19.5259 3.92363 18.9616 3.92363C18.9612 3.92363 18.9607 3.92363 18.9603 3.92363L1.02304 3.94828C0.749405 3.94863 0.492258 4.05554 0.299016 4.24929C0.105813 4.44308 -0.000358321 4.70054 -6.75911e-06 4.9741L0.0138604 15.0533C0.014212 15.327 0.121126 15.5841 0.314875 15.7773C0.508273 15.9702 0.765108 16.0764 1.03827 16.0764C1.03874 16.0764 1.03925 16.0764 1.03964 16.0764L18.9769 16.0517C19.5416 16.0509 20.0006 15.5908 19.9999 15.0259L19.9861 4.94664ZM17.8363 4.9496L10.0007 10.3966L2.14999 4.97117L17.8363 4.9496ZM13.3143 11.4246L17.9615 15.0287L2.02518 15.0506L6.7008 11.4246C6.92431 11.2512 6.96501 10.9295 6.79165 10.7059C6.61826 10.4824 6.29654 10.4417 6.07295 10.6151L1.03753 14.5201L1.02503 5.43906L9.71032 11.4413C9.79797 11.5019 9.89973 11.5321 10.0015 11.5321C10.1038 11.5321 10.2061 11.5015 10.2939 11.4404L18.9623 5.41452L18.9755 14.5186L13.942 10.6151C13.7186 10.4418 13.3968 10.4824 13.2234 10.706C13.05 10.9295 13.0907 11.2513 13.3143 11.4246Z" fill="#7C7168"/>
</g>
<defs>
<clipPath id="clip0">
<rect width="20" height="20" fill="white"/>
</clipPath>
</defs>
</svg>
