<svg width="10" height="12" viewBox="0 0 10 12" fill="none" xmlns="http://www.w3.org/2000/svg">
<path d="M7.97202 1.23097C7.17826 0.437204 6.12283 0 5.00035 0C3.87764 0 2.82243 0.437204 2.02867 1.23097C0.559709 2.69971 0.377156 5.46319 1.63332 7.1375L5.00035 12L8.36233 7.14429C9.62354 5.46319 9.44099 2.69971 7.97202 1.23097ZM8.00687 6.88811L5.00035 11.2299L1.98901 6.88131C0.849644 5.36216 1.01291 2.86648 2.33877 1.54084C3.04969 0.829921 3.99489 0.4383 5.00035 0.4383C6.00581 0.4383 6.951 0.829921 7.66214 1.54084C8.988 2.86648 9.15127 5.36216 8.00687 6.88811Z" fill="#8F8F8F"/>
</svg>
