<svg width="20" height="20" viewBox="0 0 20 20" fill="none" xmlns="http://www.w3.org/2000/svg">
<path d="M15.8594 7.69562V5.85938C15.8594 2.62848 13.2309 0 10 0C6.7691 0 4.14062 2.62848 4.14062 5.85938V7.69562C3.25012 7.87704 2.57812 8.66623 2.57812 9.60938V11.8269C2.57812 12.0427 2.75299 12.2176 2.96875 12.2176C3.18451 12.2176 3.35938 12.0427 3.35938 11.8269V9.60938C3.35938 8.96317 3.88504 8.4375 4.53125 8.4375H15.4688C16.115 8.4375 16.6406 8.96317 16.6406 9.60938V18.0469C16.6406 18.5561 16.3141 18.9903 15.8594 19.1516V16.7969C15.8594 16.5811 15.6845 16.4062 15.4688 16.4062C15.253 16.4062 15.0781 16.5811 15.0781 16.7969V19.2188H4.53125C3.88504 19.2188 3.35938 18.6931 3.35938 18.0469V14.9609C3.35938 14.7452 3.18451 14.5703 2.96875 14.5703C2.75299 14.5703 2.57812 14.7452 2.57812 14.9609V18.0469C2.57812 19.1238 3.45428 20 4.53125 20H15.4688C16.5457 20 17.4219 19.1238 17.4219 18.0469V9.60938C17.4219 8.66623 16.7499 7.87704 15.8594 7.69562ZM7.03125 7.65625V5.85938C7.03125 4.22241 8.36304 2.89062 10 2.89062C11.637 2.89062 12.9688 4.22241 12.9688 5.85938V7.65625H7.03125ZM13.75 7.65625V5.85938C13.75 3.79166 12.0677 2.10938 10 2.10938C7.93228 2.10938 6.25 3.79166 6.25 5.85938V7.65625H4.92188V5.85938C4.92188 3.05923 7.19986 0.78125 10 0.78125C12.8001 0.78125 15.0781 3.05923 15.0781 5.85938V7.65625H13.75Z" fill="#7C7168"/>
<path d="M2.96875 13.7691C3.07144 13.7691 3.1723 13.7274 3.24493 13.6546C3.31757 13.582 3.35938 13.4813 3.35938 13.3784C3.35938 13.2758 3.31757 13.1749 3.24493 13.1024C3.1723 13.0296 3.07144 12.9878 2.96875 12.9878C2.86606 12.9878 2.7652 13.0296 2.69257 13.1024C2.61993 13.1749 2.57812 13.2758 2.57812 13.3784C2.57812 13.4813 2.61993 13.582 2.69257 13.6546C2.7652 13.7274 2.86606 13.7691 2.96875 13.7691Z" fill="#7C7168"/>
<path d="M10 17.8906C10.6462 17.8906 11.1719 17.365 11.1719 16.7188V14.6445C11.7587 14.256 12.1144 13.6029 12.1144 12.8873C12.1144 11.7242 11.1681 10.7779 10.005 10.7779C8.84186 10.7779 7.89566 11.7242 7.89566 12.8873C7.89566 13.5977 8.24738 14.2484 8.82812 14.6378V16.7188C8.82812 17.365 9.35379 17.8906 10 17.8906ZM8.67691 12.8873C8.67691 12.1548 9.27261 11.5591 10.005 11.5591C10.7373 11.5591 11.3332 12.1548 11.3332 12.8873C11.3332 13.3902 11.0539 13.8441 10.6046 14.0723C10.4733 14.1388 10.3906 14.2734 10.3906 14.4206V16.7188C10.3906 16.9342 10.2155 17.1094 10 17.1094C9.78455 17.1094 9.60938 16.9342 9.60938 16.7188V14.4154C9.60938 14.2693 9.52774 14.1353 9.39774 14.0683C8.95309 13.8391 8.67691 13.3865 8.67691 12.8873Z" fill="#7C7168"/>
<path d="M15.4688 15.5859C15.5719 15.5859 15.6723 15.5441 15.7449 15.4715C15.8176 15.3989 15.8594 15.2985 15.8594 15.1953C15.8594 15.0922 15.8176 14.9918 15.7449 14.9191C15.6723 14.8465 15.5719 14.8047 15.4688 14.8047C15.3661 14.8047 15.2652 14.8465 15.1926 14.9191C15.1199 14.9918 15.0781 15.0926 15.0781 15.1953C15.0781 15.298 15.1199 15.3989 15.1926 15.4715C15.2652 15.5441 15.3661 15.5859 15.4688 15.5859Z" fill="#7C7168"/>
</svg>
