<svg width="48" height="97" viewBox="0 0 48 97" fill="none" xmlns="http://www.w3.org/2000/svg">
<g filter="url(#filter0_d)">
<g clip-path="url(#clip0)">
<path d="M39.5635 4.69026C38.8854 4.19653 37.5751 3.57726 36.7838 3.25324L35.4529 2.61431L36.3214 1.87431C37.7317 0.828338 38.3437 0.449288 39.2759 0.773428C39.6926 0.918311 40.1108 1.02852 41.1515 1.73392C41.628 1.97376 42.4013 2.39872 42.293 3.18875C42.2296 3.65117 41.9196 4.4886 41.6606 4.88066L40.9856 5.9264L39.5635 4.69026Z" fill="#A99CC9"/>
<path d="M9.83754 88.4422C9.84123 88.2701 10.5882 86.0549 10.8573 84.9532C11.3933 82.7591 11.8471 79.1336 12.4254 73.5384C12.6318 71.5415 12.864 60.2403 12.9351 48.3965C12.973 42.1032 12.7622 38.392 12.7737 35.9769C12.7946 31.5915 13.0523 31.4798 13.3495 27.9414C13.6813 24.8223 14.2553 22.4154 14.1626 22.3077C13.5997 22.4368 13.6876 22.3163 9.48989 23.4947C7.2711 24.1176 4.64099 24.8459 4.56539 24.7916C4.48982 24.7373 6.05036 22.4402 7.32623 20.5057L9.79854 17.0511L12.8361 16.1169C14.5547 15.672 16.3385 15.2528 16.6936 15.0323C17.0487 14.8119 17.627 13.7006 18.2184 12.6202C21.1031 7.35091 26.0265 3.23051 31.7345 1.35017C32.8854 0.97105 36.0964 0.257089 36.5717 0.35305C37.2899 0.52883 36.217 0.667178 34.0477 2.31811C29.4415 5.82368 25.8251 10.4107 24.1598 15.2188C22.6486 20.3998 22.187 22.2575 22.1484 29.4926C22.2968 33.2702 22.6807 35.734 23.2006 38.832C23.7687 42.2165 24.5408 46.3579 26.3817 53.796C28.7866 63.5128 29.4476 65.5064 30.6873 74.0535C31.2992 78.5128 31.5908 80.0225 31.2033 80.2912C30.9217 80.4865 25.5866 82.5282 20.326 84.611C15.6568 86.4598 11.0998 88.1997 10.9116 88.1997C10.7672 88.1997 9.834 88.6143 9.83754 88.4422V88.4422Z" fill="#7C5EA3"/>
<path d="M24.723 18.8618C24.8387 18.35 25.1567 17.0971 25.4673 16.0777L26.2469 14.1934L29.4637 13.4078C33.2351 12.4868 35.7703 11.3492 37.9368 9.98007C39.7573 8.82957 41.9174 6.63515 42.6491 5.23479C42.8313 4.88616 43.0005 3.92311 43.1472 3.77216C43.4057 3.50607 43.6641 4.38239 43.5896 5.72506C43.4972 7.38943 43.2382 8.97546 42.4932 10.1427C40.3635 13.4794 36.3771 16.2403 29.7437 18.6601C27.6695 19.4167 25.029 20.235 24.7802 20.235C24.4528 20.235 24.5708 19.535 24.723 18.8618V18.8618Z" fill="#7C5EA3"/>
<path d="M9.23079 88.6902C9.9768 87.0027 11.0463 81.7601 11.5632 77.2568C12.3415 70.4756 12.3978 68.7455 12.4347 50.4403C12.473 31.4791 12.5551 29.3341 13.4141 24.8639C13.6072 23.8591 13.7652 22.9394 13.7652 22.8202C13.7652 22.6872 12.0226 23.1049 9.2505 23.9024C6.76742 24.6167 4.57024 25.2012 4.36789 25.2012C4.16554 25.2012 4 25.0907 4 24.9557C4 24.8207 5.2258 22.8897 6.72401 20.6647L9.44806 16.6193L12.9348 15.7915L16.4216 14.9637L16.9539 13.9041C17.9332 11.9549 19.8594 9.20691 21.4342 7.51226C25.4193 3.22379 30.7218 0.602957 36.5303 0.0508305C37.5446 -0.0455881 37.6892 -0.0196064 37.6841 0.258077C37.6813 0.432677 37.2299 0.812157 36.6819 1.10135C36.1339 1.39055 34.7741 2.31315 33.6602 3.15158C26.9234 8.22238 23.3468 15.2263 22.5529 24.9025C21.994 31.7142 23.1378 39.0876 27.1945 54.8221C29.2127 62.6501 29.4625 63.7708 30.1043 67.8798C30.8737 72.8057 31.858 80.2753 31.7481 80.3542C31.6935 80.3934 30.289 80.9599 28.6271 81.613C26.9652 82.2661 22.0772 84.1954 17.7648 85.9002C13.4525 87.6051 9.73739 89 9.50902 89C9.22312 89 9.13648 88.9035 9.23079 88.6902V88.6902ZM13.4251 87.1361C15.2905 86.4002 17.9154 85.364 19.2581 84.8336C20.6008 84.3031 22.9078 83.3917 24.3848 82.8082C25.8618 82.2248 28.004 81.3798 29.1453 80.9305C31.0599 80.1769 31.2162 80.0744 31.1652 79.6054C30.9713 77.8226 29.7778 69.2988 29.3638 66.7405C28.9535 64.2052 27.1279 56.5547 25.3695 50.0021C24.6908 47.4729 22.8252 38.4917 22.4023 35.7175C21.8865 32.3341 21.809 24.7385 22.2619 21.9586C22.7056 19.2349 23.8664 15.2078 24.7668 13.2681C26.9586 8.54621 30.8675 4.14807 35.2905 1.42729C36.0574 0.955556 36.5314 0.551781 36.3529 0.522302C36.1756 0.493022 35.3656 0.592787 34.5528 0.744003C27.4185 2.07125 21.0205 7.02301 17.6636 13.8154C17.3558 14.4382 17.0081 15.0267 16.891 15.1231C16.7738 15.2195 15.1301 15.6927 13.2382 16.1747L9.79854 17.0511L7.18195 20.9213L4.56539 24.7916L7.8836 23.8422C14.8988 21.8351 14.5966 21.8538 14.2355 23.4485C13.0838 28.5348 12.7512 34.3953 13.0165 44.9323C13.4948 63.929 12.3868 80.996 10.2552 87.4664C10.0726 88.0207 9.94801 88.4742 9.97831 88.4742C10.0087 88.4742 11.5597 87.8721 13.4251 87.1361V87.1361ZM24.143 20.4715C23.7715 20.0399 25.3602 14.3527 25.9757 13.9108C26.1013 13.8206 27.1105 13.5589 28.2183 13.3293C30.8086 12.7924 33.9112 11.7456 35.8379 10.7586C38.8273 9.22706 41.5318 6.67318 42.4609 4.50453C43.0149 3.21134 43.4448 3.24472 43.7751 4.60653C44.9723 9.54202 41.371 14.0665 33.4176 17.6194C31.2359 18.594 28.2601 19.6531 25.8735 20.3043C24.4406 20.6953 24.3437 20.7047 24.143 20.4715V20.4715ZM26.2158 19.7521C28.5564 19.114 32.7201 17.5019 34.8914 16.393C40.9484 13.2998 43.8662 9.50133 43.4018 5.31395L43.2262 3.73043L42.9431 4.60678C42.6156 5.62063 42.1416 6.31542 40.8245 7.71219C38.2003 10.4952 34.2116 12.4192 28.3675 13.721L26.2788 14.2243L25.6256 16.0604C24.9506 18.0884 24.5028 20.1184 24.7304 20.1182C24.8088 20.1182 25.4773 19.9534 26.2158 19.7521V19.7521ZM40.6194 5.95921C40.6194 5.62805 38.1817 4.06204 36.7407 3.46751C35.923 3.13012 35.2527 2.74023 35.2512 2.60108C35.2494 2.46194 35.8505 1.92954 36.5861 1.41799C38.1928 0.300732 38.9047 0.226993 40.4959 1.01299C41.9813 1.74672 42.5737 2.34303 42.566 3.09679C42.5565 4.02485 41.5411 5.99485 41.0363 6.06466C40.807 6.09632 40.6194 6.04889 40.6194 5.95921V5.95921ZM42.1264 3.75567C42.529 2.67492 42.1971 2.22281 40.3201 1.29495C39.0298 0.657127 38.8902 0.626673 38.1985 0.832388C37.7912 0.953496 37.0069 1.40398 36.4555 1.83345L35.4529 2.61431L36.8766 3.22933C38.928 4.11558 39.7127 4.57666 40.3882 5.29298L40.9856 5.9264L41.4006 5.25811C41.6289 4.89056 41.9555 4.21446 42.1264 3.75567V3.75567Z" fill="#7C5EA3"/>
<path d="M40.5826 5.48273C39.7173 4.55548 39.0234 4.14255 36.5125 3.06057L35.4513 2.60331L36.1068 2.11215C37.2945 1.22225 37.8848 0.896667 38.5482 0.765682C38.8753 0.701089 39.2006 0.779895 39.8379 1.07815C41.1174 1.67693 41.8771 2.17026 42.1154 2.55707C42.313 2.87777 42.2532 3.45545 41.9534 4.12182C41.6965 4.69274 41.0489 5.89242 40.9978 5.89216C40.9795 5.89208 40.7926 5.70782 40.5826 5.48273V5.48273Z" fill="#A99CC9"/>
<path d="M40.6563 5.57141C39.7375 4.57339 39.0466 4.1576 36.4471 3.03798L35.4492 2.60814L36.1106 2.10408C37.4909 1.05228 38.3898 0.635523 39.0165 0.756692C39.3861 0.828136 40.8762 1.55849 41.4364 1.94275C42.0648 2.37377 42.2284 2.60522 42.2284 3.06335C42.2284 3.46159 42.0431 4.01706 41.6735 4.72723C41.3317 5.384 41.0336 5.89105 40.9889 5.89174C40.9684 5.89209 40.8188 5.74791 40.6563 5.57141V5.57141Z" fill="#A99CC9"/>
<path d="M40.6308 5.54672C39.6602 4.52367 39.0912 4.18327 36.4451 3.04296C35.9704 2.83838 35.5501 2.65697 35.5113 2.63984C35.4417 2.60916 35.4488 2.60245 35.969 2.20591C36.8323 1.54784 37.3093 1.23601 37.8228 0.993792C38.2091 0.811584 38.479 0.740845 38.7879 0.740845C39.0159 0.740845 39.0534 0.747734 39.2856 0.832385C39.6177 0.953457 40.3337 1.29796 41.0772 1.69445C41.1665 1.74206 41.3964 1.89574 41.5881 2.03596C41.8729 2.24431 41.9597 2.324 42.0629 2.47207C42.2313 2.71371 42.267 2.8497 42.2475 3.1753C42.2292 3.47874 42.1472 3.73038 41.8656 4.34671C41.6349 4.85158 41.0389 5.90851 40.985 5.90851C40.9789 5.90851 40.8195 5.74571 40.6308 5.54672V5.54672Z" fill="#A698C6" stroke="#A99CC9" stroke-width="0.126269"/>
<path d="M40.7346 6.11004C40.6922 6.09778 40.6576 6.05718 40.6576 6.01988C40.6576 5.70011 38.3859 4.24334 36.7476 3.51254C35.967 3.16434 35.2939 2.77198 35.2939 2.66516C35.2939 2.55999 35.8589 2.05555 36.4578 1.62612C37.8013 0.662692 38.5445 0.430977 39.4723 0.686375C40.3475 0.927299 41.9395 1.8747 42.276 2.3549C42.6243 2.85188 42.6351 3.29449 42.3205 4.16966C42.1123 4.74866 41.9156 5.13242 41.5851 5.60443C41.2732 6.04975 41.0286 6.19518 40.7347 6.11004H40.7346ZM41.3653 5.46095C41.5241 5.19738 41.7749 4.71789 41.9227 4.39542C42.5168 3.09921 42.4517 2.67197 41.5651 2.04945C41.0888 1.71507 39.9925 1.14248 39.4001 0.91876C38.7953 0.690383 38.3623 0.75599 37.5133 1.20462C37.1221 1.41134 35.9341 2.25164 35.6148 2.54748C35.4825 2.66999 35.4702 2.70223 35.5438 2.73282C36.1922 3.00223 38.1384 3.88222 38.5747 4.10327C39.3426 4.49226 39.9812 4.95944 40.5288 5.5327C40.7797 5.79547 41.0056 5.99465 41.0308 5.97532C41.0559 5.95598 41.2065 5.72452 41.3653 5.46095H41.3653Z" fill="#A99CC9" stroke="#A99CC9" stroke-width="0.0668174"/>
<path d="M40.5959 6.1211C40.5647 6.11513 40.5275 6.1052 40.513 6.09878C40.4759 6.08235 40.4487 6.04591 40.4399 6.00118C40.4133 5.86421 40.132 5.61388 39.5543 5.21314C38.6716 4.60081 37.4135 3.89145 36.493 3.48712C36.4348 3.46155 36.3802 3.43817 36.3716 3.43512C36.3633 3.43181 36.3562 3.42777 36.3562 3.42545C36.3562 3.4228 36.3526 3.42148 36.3489 3.42148C36.3452 3.42148 36.3352 3.4175 36.3276 3.41313C36.3202 3.40849 36.311 3.40499 36.3076 3.40518C36.3039 3.40536 36.2971 3.40187 36.2922 3.39777C36.2876 3.39313 36.2174 3.35802 36.1369 3.31904C35.7564 3.13487 35.4305 2.95125 35.239 2.81316C35.0485 2.67583 35.0405 2.64973 35.1486 2.51932C35.2033 2.45334 35.3385 2.31489 35.3482 2.31489C35.3519 2.31489 35.3546 2.31158 35.3546 2.3078C35.3546 2.30383 35.3611 2.29653 35.3681 2.29136C35.3974 2.27109 35.4085 2.2611 35.4085 2.25514C35.4085 2.25182 35.415 2.24619 35.4239 2.24295C35.4322 2.23963 35.4394 2.23393 35.4394 2.23022C35.4394 2.22625 35.4458 2.22036 35.4548 2.21651C35.4631 2.21254 35.4702 2.20684 35.4702 2.20353C35.4702 2.20021 35.4785 2.19254 35.4895 2.18657C35.5 2.18061 35.5088 2.17313 35.5088 2.16995C35.5088 2.16663 35.5171 2.15934 35.528 2.15338C35.5386 2.14742 35.5473 2.13993 35.5473 2.13675C35.5473 2.13344 35.5556 2.12615 35.5666 2.12012C35.5771 2.11416 35.5859 2.10615 35.5859 2.10237C35.5859 2.0984 35.5964 2.08999 35.6091 2.08323C35.6218 2.07647 35.6322 2.06779 35.6322 2.06388C35.6322 2.05991 35.6427 2.05124 35.6554 2.04455C35.6681 2.03779 35.6785 2.02944 35.6785 2.02606C35.6785 2.02275 35.6924 2.01129 35.7093 2.00089C35.7262 1.99049 35.7402 1.97962 35.7402 1.97677C35.7402 1.97412 35.7548 1.96074 35.7729 1.94743C35.791 1.93418 35.823 1.9096 35.8442 1.89277C35.9707 1.7926 36.0223 1.75403 36.2527 1.58762C36.3926 1.48659 36.5316 1.38849 36.5617 1.36961L36.6164 1.3353L36.8602 1.33663L37.1039 1.33795L37.0058 1.40094C36.6507 1.62914 36.0174 2.0791 35.7003 2.32843C35.6424 2.37401 35.595 2.41355 35.5951 2.41632C35.5951 2.41897 35.5895 2.42355 35.5829 2.42627C35.5764 2.42892 35.5517 2.44785 35.5284 2.46826C35.5053 2.48866 35.4704 2.51907 35.451 2.53578C35.4317 2.55254 35.3984 2.58466 35.3772 2.60721C35.3138 2.67458 35.3036 2.66531 35.5668 2.7786C35.6897 2.83153 35.9394 2.94079 36.1217 3.02142C36.3039 3.10206 36.5605 3.21553 36.6919 3.27358C36.8233 3.33161 36.9354 3.38233 36.941 3.38625C36.9465 3.39023 36.9546 3.39334 36.9586 3.39334C36.9623 3.39334 36.9735 3.39798 36.9823 3.4042C36.9915 3.41017 37.0011 3.41393 37.0043 3.41254C37.007 3.41122 37.0117 3.41387 37.0148 3.41917C37.0176 3.42447 37.0213 3.42679 37.024 3.42514C37.0268 3.42315 37.0355 3.42646 37.0443 3.43243C37.0526 3.43839 37.0631 3.44163 37.0666 3.44004C37.0703 3.43871 37.073 3.43952 37.073 3.44203C37.073 3.44865 37.1114 3.46693 37.1248 3.46693C37.1303 3.46693 37.1346 3.46892 37.1346 3.47091C37.1346 3.47289 37.1858 3.498 37.2483 3.52642C37.4925 3.63751 37.8792 3.81604 38.0423 3.89299C38.1364 3.93744 38.2135 3.97216 38.2135 3.97019C38.2135 3.9682 38.2191 3.97151 38.2248 3.97734C38.2312 3.9833 38.2362 3.98635 38.2362 3.98417C38.2363 3.98218 38.2457 3.98615 38.257 3.99384C38.2682 4.00132 38.2821 4.00741 38.2878 4.00741C38.2933 4.00741 38.2983 4.01006 38.2983 4.01271C38.2983 4.01602 38.3038 4.01802 38.3098 4.01802C38.3162 4.01802 38.3212 4.02066 38.3212 4.02331C38.3212 4.02663 38.3249 4.02861 38.3286 4.02861C38.3332 4.02861 38.3874 4.05518 38.45 4.08764C38.5124 4.1201 38.5782 4.15418 38.5963 4.16339C38.6144 4.1726 38.629 4.18214 38.629 4.18459C38.629 4.18724 38.6337 4.18923 38.6397 4.18923C38.6453 4.18923 38.6525 4.1932 38.6549 4.19751C38.6576 4.20214 38.6641 4.2058 38.6695 4.2058C38.6751 4.2058 38.6854 4.21042 38.6927 4.21546C38.7198 4.23566 38.7348 4.24448 38.7416 4.24448C38.7453 4.24448 38.7533 4.24978 38.7589 4.25607C38.7645 4.2627 38.7709 4.26628 38.7733 4.26455C38.7761 4.26257 38.7843 4.26786 38.7926 4.27515C38.8009 4.2827 38.8109 4.28747 38.8149 4.28568C38.8186 4.28369 38.8222 4.28502 38.8222 4.28767C38.8222 4.29032 38.8699 4.32146 38.9282 4.35641C39.3497 4.60919 39.8067 4.95668 40.1435 5.28044C40.1681 5.30402 40.1914 5.3233 40.1954 5.3233C40.1991 5.3233 40.2009 5.32595 40.1982 5.3286C40.1954 5.33125 40.2009 5.33635 40.2074 5.33953C40.2148 5.34284 40.2181 5.34549 40.2148 5.34549C40.2111 5.34559 40.2253 5.36119 40.2462 5.3802C40.2669 5.39922 40.3216 5.45462 40.3677 5.50331C40.5215 5.66603 40.6797 5.81633 40.7796 5.89485C40.8018 5.91227 40.8225 5.92658 40.8258 5.92658C40.8341 5.92658 40.9505 5.751 41.0711 5.55584C41.4335 4.969 41.8247 4.16401 41.9812 3.68301C42.1232 3.24688 42.1266 2.9375 41.9922 2.67879C41.8245 2.35592 41.4337 2.04794 40.622 1.59892C40.5262 1.54592 40.2093 1.37848 40.1401 1.34429C40.1221 1.33541 40.1401 1.33488 40.4641 1.33461L40.807 1.33444L40.9188 1.40168C41.3725 1.67467 41.7326 1.93388 41.9529 2.14597C41.9839 2.17585 42.0118 2.20109 42.015 2.20208C42.0178 2.2034 42.0206 2.20738 42.0206 2.21129C42.0206 2.21526 42.0233 2.2195 42.027 2.2205C42.0444 2.2258 42.1879 2.42352 42.1839 2.43674C42.1839 2.43873 42.1867 2.44071 42.1904 2.44071C42.1941 2.44071 42.1978 2.4427 42.1969 2.44468C42.1941 2.45184 42.2074 2.47926 42.2127 2.47926C42.2155 2.47926 42.2183 2.48457 42.2192 2.49119C42.2192 2.49782 42.2229 2.50464 42.2266 2.50642C42.2303 2.50841 42.233 2.51239 42.233 2.51524C42.233 2.52835 42.2465 2.5512 42.2526 2.5512C42.2563 2.5512 42.2572 2.55518 42.2554 2.55948C42.2526 2.56412 42.2554 2.56777 42.2591 2.56777C42.2637 2.56777 42.2655 2.57174 42.2627 2.57611C42.26 2.58075 42.2627 2.5844 42.2664 2.5844C42.271 2.5844 42.2729 2.58837 42.2701 2.59268C42.2674 2.59731 42.2701 2.60095 42.2738 2.60095C42.2784 2.60095 42.2803 2.60493 42.2775 2.60923C42.2747 2.61387 42.2747 2.61751 42.2803 2.61751C42.2839 2.61751 42.2876 2.6254 42.2886 2.63507C42.2886 2.64474 42.2932 2.65408 42.2959 2.6558C42.2996 2.65779 42.3033 2.66647 42.3042 2.67561C42.307 2.68476 42.3098 2.69297 42.3135 2.69383C42.3172 2.69449 42.3181 2.70045 42.3162 2.70628C42.3135 2.71224 42.3163 2.71708 42.319 2.71708C42.3227 2.71709 42.3264 2.72768 42.3273 2.7406C42.3273 2.75352 42.3329 2.76485 42.3365 2.76571C42.3402 2.76637 42.3421 2.77167 42.3393 2.77756C42.3366 2.78286 42.3392 2.78936 42.3439 2.79128C42.3485 2.79327 42.3504 2.7985 42.3476 2.80293C42.3448 2.80757 42.3448 2.81539 42.3476 2.82076C42.3504 2.82605 42.355 2.84393 42.3568 2.86043C42.3596 2.87692 42.3624 2.8931 42.3652 2.89634C42.3679 2.89966 42.3688 2.91012 42.3679 2.91972C42.3679 2.92933 42.3679 2.93867 42.3735 2.94046C42.3781 2.94244 42.379 2.95483 42.3772 2.96841C42.3744 2.98199 42.3744 2.99762 42.3799 3.00305C42.3854 3.01312 42.3845 3.23193 42.3772 3.29795C42.3725 3.34717 42.363 3.41997 42.3557 3.45839C42.3529 3.46906 42.3501 3.48774 42.3483 3.49987C42.3455 3.51206 42.3427 3.53073 42.34 3.54133C42.3372 3.552 42.3344 3.56691 42.3335 3.57453C42.3335 3.58214 42.3289 3.59261 42.3261 3.59777C42.3234 3.60307 42.3224 3.6099 42.3261 3.61321C42.3289 3.61652 42.3261 3.62288 42.3215 3.62725C42.316 3.63189 42.3141 3.6403 42.316 3.64639C42.3188 3.65236 42.316 3.65899 42.3123 3.66091C42.3077 3.6629 42.3067 3.66898 42.3086 3.67475C42.3114 3.68071 42.3086 3.68654 42.3058 3.68826C42.3021 3.69025 42.2994 3.69681 42.2984 3.7035C42.2982 3.72093 42.2938 3.74192 42.2875 3.75219C42.2847 3.75682 42.2829 3.76332 42.2838 3.76603C42.2838 3.76868 42.2838 3.77551 42.2792 3.78094C42.2755 3.78624 42.2755 3.7924 42.2764 3.79425C42.2792 3.79624 42.2764 3.80088 42.2736 3.80452C42.269 3.8085 42.2644 3.81976 42.2631 3.8299C42.2603 3.8401 42.2576 3.85268 42.2548 3.85784C42.252 3.86314 42.2511 3.86964 42.2548 3.87262C42.2576 3.87527 42.2548 3.87859 42.252 3.87978C42.2474 3.8811 42.2437 3.89223 42.2422 3.90515C42.2422 3.91807 42.2376 3.92866 42.2339 3.92866C42.2302 3.92868 42.2293 3.93396 42.2312 3.93979C42.2339 3.94575 42.2312 3.95238 42.2275 3.95424C42.2229 3.95622 42.222 3.96232 42.2238 3.96808C42.2266 3.97405 42.2238 3.97855 42.2201 3.97855C42.2155 3.97855 42.2137 3.98385 42.2164 3.98961C42.2192 3.99558 42.2164 4.00067 42.2127 4.00067C42.2081 4.00067 42.2063 4.00597 42.209 4.01173C42.2118 4.01769 42.209 4.0228 42.2054 4.0228C42.2007 4.0228 42.1989 4.02809 42.2017 4.03386C42.2044 4.03982 42.2017 4.04493 42.198 4.04493C42.1934 4.04493 42.1915 4.05022 42.1943 4.05598C42.197 4.06195 42.1943 4.06705 42.1906 4.06705C42.186 4.06705 42.1841 4.07169 42.1869 4.07785C42.1897 4.08381 42.1869 4.08944 42.1832 4.09037C42.1795 4.09103 42.1749 4.10137 42.174 4.11276C42.174 4.12409 42.1694 4.13336 42.1657 4.13342C42.162 4.13343 42.161 4.13872 42.1629 4.14455C42.1657 4.15051 42.1629 4.15562 42.1601 4.15562C42.1546 4.15562 42.1426 4.18954 42.1408 4.20815C42.1406 4.21146 42.1381 4.21676 42.1344 4.2206C42.1307 4.22458 42.1298 4.22981 42.1316 4.23259C42.1344 4.23524 42.1316 4.23856 42.1288 4.23949C42.1242 4.24081 42.1196 4.24889 42.1186 4.25817C42.1158 4.26744 42.1131 4.27803 42.1103 4.28168C42.1076 4.28565 42.1066 4.29082 42.1103 4.29387C42.1131 4.29718 42.1103 4.29916 42.1057 4.29916C42.1011 4.29916 42.0983 4.30314 42.1011 4.30725C42.1039 4.31189 42.1011 4.31692 42.0983 4.31871C42.0937 4.3207 42.0918 4.32533 42.0918 4.32858C42.0918 4.33189 42.0891 4.34229 42.0845 4.35104C42.0789 4.35985 42.0771 4.36833 42.0789 4.36992C42.0817 4.37125 42.0791 4.37588 42.0743 4.38025C42.0697 4.38423 42.0688 4.38767 42.0715 4.38767C42.0743 4.38767 42.0743 4.39099 42.0688 4.39456C42.0642 4.39854 42.0587 4.41066 42.0563 4.42192C42.0409 4.49185 41.7979 4.99811 41.7045 5.15449C41.6962 5.16794 41.6906 5.1796 41.6916 5.18033C41.6916 5.18099 41.6851 5.19099 41.6753 5.20238C41.6655 5.21378 41.6597 5.22311 41.6621 5.22311C41.6648 5.22311 41.6621 5.22908 41.6547 5.23603C41.6482 5.24312 41.6452 5.25061 41.6482 5.2526C41.651 5.25459 41.6482 5.25657 41.6436 5.25657C41.6381 5.25657 41.6362 5.25856 41.6381 5.26187C41.6408 5.26452 41.6381 5.26783 41.6344 5.26889C41.6298 5.27022 41.6261 5.27638 41.6252 5.28321C41.6252 5.29003 41.6215 5.29559 41.6187 5.29559C41.6113 5.29559 41.5955 5.32361 41.6001 5.32918C41.6029 5.33183 41.6003 5.33447 41.5946 5.33447C41.5891 5.33447 41.5872 5.3358 41.59 5.33779C41.5928 5.33978 41.5928 5.34375 41.5873 5.34746C41.5836 5.35078 41.5248 5.43346 41.4575 5.53083C41.2811 5.78644 41.1846 5.89759 41.0532 5.99671C40.9868 6.04679 40.8893 6.10004 40.8513 6.10687C40.8411 6.10886 40.8328 6.11217 40.8328 6.11422C40.8328 6.11621 40.8281 6.11819 40.8233 6.11819C40.8177 6.1183 40.7931 6.12151 40.7679 6.12483C40.7045 6.1335 40.6612 6.13224 40.5952 6.11952L40.5959 6.1211Z" fill="#A698C6" stroke="#A99CC9" stroke-width="0.00835217"/>
<path d="M40.7833 6.00488C40.6806 5.99018 40.6308 5.95355 40.597 5.86758C40.4341 5.45342 38.2024 4.03453 36.7252 3.40591C35.8556 3.03586 35.2539 2.68222 35.2539 2.54119C35.2539 2.40117 35.799 1.91766 36.5552 1.38702C37.5378 0.697419 38.1202 0.448608 38.7517 0.448608C39.2287 0.448608 39.6395 0.568678 40.3872 0.92661C41.3426 1.38398 41.994 1.84064 42.28 2.25352C42.404 2.43234 42.4585 2.55005 42.5037 2.7363C42.5491 2.92328 42.5349 3.26125 42.4705 3.52368C42.2858 4.27693 41.7725 5.31041 41.3583 5.76287C41.2488 5.88252 41.0704 6.00402 41.0038 6.00431C40.9764 6.00443 40.9343 6.00695 40.9103 6.01093C40.8864 6.01424 40.8292 6.01159 40.7833 6.00496V6.00488ZM41.2265 5.47201C41.5205 4.99378 41.6186 4.81457 41.8178 4.39222C42.1947 3.59328 42.3097 3.19188 42.2557 2.86364C42.1602 2.28271 41.6351 1.87144 39.9612 1.06657C39.2395 0.719505 38.9397 0.629537 38.6328 0.667833C38.2657 0.713674 37.8439 0.878612 37.3246 1.17947C36.9213 1.41317 36.6826 1.58057 36.0243 2.09175C35.5691 2.4452 35.436 2.55752 35.4563 2.57101C35.4709 2.58069 35.8661 2.75419 36.3347 2.95655C37.7887 3.58448 38.2405 3.7937 38.8234 4.10905C39.5552 4.50495 39.9856 4.83166 40.4852 5.3703C40.714 5.61701 40.9696 5.88065 40.9754 5.8759C40.9781 5.87325 41.0916 5.69149 41.2265 5.47201V5.47201Z" fill="#A698C6" stroke="#A99CC9" stroke-width="0.0236235"/>
</g>
</g>
<defs>
<filter id="filter0_d" x="0" y="0" width="48" height="97" filterUnits="userSpaceOnUse" color-interpolation-filters="sRGB">
<feFlood flood-opacity="0" result="BackgroundImageFix"/>
<feColorMatrix in="SourceAlpha" type="matrix" values="0 0 0 0 0 0 0 0 0 0 0 0 0 0 0 0 0 0 127 0"/>
<feOffset dy="4"/>
<feGaussianBlur stdDeviation="2"/>
<feColorMatrix type="matrix" values="0 0 0 0 0 0 0 0 0 0 0 0 0 0 0 0 0 0 0.25 0"/>
<feBlend mode="normal" in2="BackgroundImageFix" result="effect1_dropShadow"/>
<feBlend mode="normal" in="SourceGraphic" in2="effect1_dropShadow" result="shape"/>
</filter>
<clipPath id="clip0">
<rect x="4" width="40" height="89" fill="white"/>
</clipPath>
</defs>
</svg>
