<svg width="38" height="38" viewBox="0 0 38 38" fill="none" xmlns="http://www.w3.org/2000/svg">
<g filter="url(#filter0_d)">
<path d="M9.50781 16.3477H23.9219V18.6914H9.50781V16.3477ZM9.50781 23.2031H23.9219V20.8594H9.50781V23.2031ZM33.2435 13.7109V26.4857C33.2424 28.3452 31.7885 29.8714 29.957 29.9922V30H8.33594C6.39731 30 4.82031 28.423 4.82031 26.4844V3.51562C4.82031 1.577 6.39731 0 8.33594 0H25.0938C27.0324 0 28.6094 1.577 28.6094 3.51562V10.1953H29.7279C31.6663 10.1953 33.2435 11.7723 33.2435 13.7109ZM26.4664 27.6562C26.3363 27.2896 26.2656 26.895 26.2656 26.4844V3.51562C26.2656 2.86949 25.7399 2.34375 25.0938 2.34375H8.33594C7.6898 2.34375 7.16406 2.86949 7.16406 3.51562V26.4844C7.16406 27.1305 7.6898 27.6562 8.33594 27.6562H26.4664ZM30.8998 13.7109C30.8998 13.0648 30.3741 12.5391 29.7279 12.5391H28.6094V26.4844C28.6094 27.1207 29.1193 27.6402 29.752 27.6558C30.3871 27.6402 30.8993 27.1211 30.8998 26.4851V13.7109ZM18.8828 14.1797H23.9219V11.8359H18.8828V14.1797ZM18.8828 9.49219H23.9219V7.14844H18.8828V9.49219ZM16.5391 14.1797H9.50781V7.14844H16.5391V14.1797ZM14.1953 9.49219H11.8516V11.8359H14.1953V9.49219Z" fill="white"/>
</g>
<defs>
<filter id="filter0_d" x="0" y="0" width="38" height="38" filterUnits="userSpaceOnUse" color-interpolation-filters="sRGB">
<feFlood flood-opacity="0" result="BackgroundImageFix"/>
<feColorMatrix in="SourceAlpha" type="matrix" values="0 0 0 0 0 0 0 0 0 0 0 0 0 0 0 0 0 0 127 0"/>
<feOffset dy="4"/>
<feGaussianBlur stdDeviation="2"/>
<feColorMatrix type="matrix" values="0 0 0 0 0 0 0 0 0 0 0 0 0 0 0 0 0 0 0.25 0"/>
<feBlend mode="normal" in2="BackgroundImageFix" result="effect1_dropShadow"/>
<feBlend mode="normal" in="SourceGraphic" in2="effect1_dropShadow" result="shape"/>
</filter>
</defs>
</svg>
